<svg xmlns="http://www.w3.org/2000/svg" width="382" height="382" fill="none"><g clip-path="url(#a)"><rect width="382" height="382" x="382" fill="#05041F" rx="191" transform="rotate(90 382 0)"/><g style="mix-blend-mode:luminosity"><path fill="url(#b)" fill-opacity=".5" d="M208.361 381.197C103.32 390.785 10.388 313.404.804 208.362-8.788 103.32 68.594 10.391 173.64.802 278.681-8.784 371.613 68.6 381.197 173.643c9.588 105.042-67.791 197.967-172.832 207.555h-.004z" style="mix-blend-mode:color-dodge"/></g><circle cx="191" cy="191" r="191" stroke="#fff" stroke-linejoin="round" stroke-opacity=".04" stroke-width="2" transform="rotate(90 191 191)"/><path stroke="url(#c)" stroke-linejoin="round" stroke-opacity=".32" stroke-width="1.5" d="M27.83 191c0 73.249 48.22 135.235 114.649 155.947 26.053 8.124 48.675-.628 48.675-27.919V62.972c0-27.29-22.622-36.043-48.675-27.92C76.05 55.766 27.831 117.752 27.831 191z"/><path stroke="url(#d)" stroke-linejoin="round" stroke-opacity=".24" stroke-width="1.5" d="M75 191c0 52.104 34.248 96.197 81.428 110.93 18.505 5.778 34.572-.447 34.572-19.86V99.93c0-19.413-16.067-25.639-34.572-19.86C109.248 94.803 75 138.896 75 191z"/></g><defs><linearGradient id="c" x1="191.154" x2="27.831" y1="191" y2="191" gradientUnits="userSpaceOnUse"><stop offset=".281" stop-color="#fff" stop-opacity="0"/><stop offset="1" stop-color="#fff"/></linearGradient><linearGradient id="d" x1="191" x2="75" y1="191" y2="191" gradientUnits="userSpaceOnUse"><stop offset=".281" stop-color="#fff" stop-opacity="0"/><stop offset="1" stop-color="#fff"/></linearGradient><radialGradient id="b" cx="0" cy="0" r="1" gradientTransform="matrix(53.20006 183.46953 -183.47433 53.20145 190.966 191.061)" gradientUnits="userSpaceOnUse"><stop stop-color="#020202"/><stop offset=".46" stop-color="#030303"/><stop offset=".63" stop-color="#0A0909"/><stop offset=".75" stop-color="#161414"/><stop offset=".84" stop-color="#272324"/><stop offset=".88" stop-color="#292526"/><stop offset=".91" stop-color="#312E2F"/><stop offset=".93" stop-color="#3F3C3D"/><stop offset=".95" stop-color="#535151"/><stop offset=".97" stop-color="#6D6B6C"/><stop offset=".98" stop-color="#8D8B8C"/><stop offset="1" stop-color="#B3B3B3"/></radialGradient><clipPath id="a"><rect width="382" height="382" x="382" fill="#fff" rx="191" transform="rotate(90 382 0)"/></clipPath></defs></svg>