<svg fill="none" xmlns="http://www.w3.org/2000/svg" id="svg-98183040_10235" viewBox="0 0 2168 1528">
    <g opacity=".7">
        <g filter="url(#svg-98183040_10235_a)">
            <circle cx="1694" cy="814.461" transform="rotate(180 1694 814.461)" fill="#7173FA" fill-opacity=".1"
                r="176.199"></circle>
        </g>
        <mask id="svg-98183040_10235_c" style="mask-type:alpha" maskUnits="userSpaceOnUse" x="1268" y="100" width="852"
            height="1428">
            <path transform="rotate(-90 1268 1527.43)" fill="url(#svg-98183040_10235_b)"
                d="M1268 1527.43h1427.43v852H1268z"></path>
        </mask>
        <g mask="url(#svg-98183040_10235_c)">
            <path stroke="#fff" stroke-opacity=".4" stroke-width="1.487" d="M1282.13 1343.8v-117.466h117.466V1343.8z">
            </path>
            <path stroke="#fff" stroke-opacity=".4" stroke-width="1.487"
                d="M1282.13 1226.34v-117.466h117.466v117.466zm0-117.47V991.404h117.466v117.466zm0-117.467V873.937h117.466v117.466zm0-117.466V756.471h117.466v117.466zm0-117.466V639.005h117.466v117.466z">
            </path>
            <path fill="#fff" fill-opacity=".32" d="M1281.38 639.749V520.796h118.953v118.953z"></path>
            <path stroke="#fff" stroke-opacity=".4" stroke-width="1.487"
                d="M1282.13 639.006V521.54h117.466v117.466zm0-117.467V404.073h117.466v117.466z"></path>
            <path stroke="#fff" stroke-opacity=".4" stroke-width="1.487"
                d="M1282.13 404.073V286.607h117.466v117.466zm117.46 939.727v-117.466h117.466V1343.8z"></path>
            <path stroke="#fff" stroke-opacity=".4" stroke-width="1.487"
                d="M1399.59 1226.34v-117.466h117.466v117.466zm0-117.47V991.404h117.466v117.466zm0-117.467V873.937h117.466v117.466zm0-117.466V756.471h117.466v117.466zm0-117.466V639.005h117.466v117.466z">
            </path>
            <path stroke="#fff" stroke-opacity=".4" stroke-width="1.487"
                d="M1399.59 639.006V521.54h117.466v117.466zm0-117.467V404.073h117.466v117.466z"></path>
            <path stroke="#fff" stroke-opacity=".4" stroke-width="1.487"
                d="M1399.59 404.073V286.607h117.466v117.466zm117.47 939.727v-117.466h117.466V1343.8z"></path>
            <path stroke="#fff" stroke-opacity=".4" stroke-width="1.487"
                d="M1517.06 1226.34v-117.466h117.466v117.466zm0-117.47V991.404h117.466v117.466zm0-117.467V873.937h117.466v117.466z">
            </path>
            <path fill="#fff" fill-opacity=".32" d="M1516.31 874.681V755.728h118.953v118.953z"></path>
            <path stroke="#fff" stroke-opacity=".4" stroke-width="1.487"
                d="M1517.06 873.937V756.471h117.466v117.466zm0-117.466V639.005h117.466v117.466z"></path>
            <path fill="#fff" fill-opacity=".32" d="M1516.31 639.749V520.796h118.953v118.953z"></path>
            <path stroke="#fff" stroke-opacity=".4" stroke-width="1.487"
                d="M1517.06 639.006V521.54h117.466v117.466zm0-117.467V404.073h117.466v117.466z"></path>
            <path stroke="#fff" stroke-opacity=".4" stroke-width="1.487"
                d="M1517.06 404.073V286.607h117.466v117.466zm117.46 939.727v-117.466h117.466V1343.8z"></path>
            <path stroke="#fff" stroke-opacity=".4" stroke-width="1.487"
                d="M1634.52 1226.34v-117.466h117.466v117.466zm0-117.47V991.404h117.466v117.466zm0-117.467V873.937h117.466v117.466zm0-117.466V756.471h117.466v117.466zm0-117.466V639.005h117.466v117.466z">
            </path>
            <path stroke="#fff" stroke-opacity=".4" stroke-width="1.487"
                d="M1634.52 639.006V521.54h117.466v117.466zm0-117.467V404.073h117.466v117.466z"></path>
            <path stroke="#fff" stroke-opacity=".4" stroke-width="1.487"
                d="M1634.52 404.073V286.607h117.466v117.466zm117.47 939.727v-117.466h117.466V1343.8z"></path>
            <path stroke="#fff" stroke-opacity=".4" stroke-width="1.487"
                d="M1751.99 1226.34v-117.466h117.466v117.466zm0-117.47V991.404h117.466v117.466z"></path>
            <path fill="#fff" fill-opacity=".32" d="M1751.25 992.146V873.193h118.953v118.953z"></path>
            <path stroke="#fff" stroke-opacity=".4" stroke-width="1.487"
                d="M1751.99 991.403V873.937h117.466v117.466zm0-117.466V756.471h117.466v117.466zm0-117.466V639.005h117.466v117.466z">
            </path>
            <path stroke="#fff" stroke-opacity=".4" stroke-width="1.487"
                d="M1751.99 639.006V521.54h117.466v117.466zm0-117.467V404.073h117.466v117.466z"></path>
            <path stroke="#fff" stroke-opacity=".4" stroke-width="1.487"
                d="M1751.99 404.073V286.607h117.466v117.466zm117.47 939.727v-117.466h117.466V1343.8z"></path>
            <path stroke="#fff" stroke-opacity=".4" stroke-width="1.487"
                d="M1869.46 1226.34v-117.466h117.466v117.466zm0-117.47V991.404h117.466v117.466zm0-117.467V873.937h117.466v117.466zm0-117.466V756.471h117.466v117.466zm0-117.466V639.005h117.466v117.466z">
            </path>
            <path stroke="#fff" stroke-opacity=".4" stroke-width="1.487"
                d="M1869.46 639.006V521.54h117.466v117.466zm0-117.467V404.073h117.466v117.466z"></path>
            <path stroke="#fff" stroke-opacity=".4" stroke-width="1.487"
                d="M1869.46 404.073V286.607h117.466v117.466zm117.46 939.727v-117.466h117.466V1343.8z"></path>
            <path stroke="#fff" stroke-opacity=".4" stroke-width="1.487"
                d="M1986.92 1226.34v-117.466h117.466v117.466zm0-117.47V991.404h117.466v117.466zm0-117.467V873.937h117.466v117.466zm0-117.466V756.471h117.466v117.466zm0-117.466V639.005h117.466v117.466z">
            </path>
            <path stroke="#fff" stroke-opacity=".4" stroke-width="1.487"
                d="M1986.92 639.006V521.54h117.466v117.466zm0-117.467V404.073h117.466v117.466z"></path>
            <path stroke="#fff" stroke-opacity=".4" stroke-width="1.487" d="M1986.92 404.073V286.607h117.466v117.466z">
            </path>
        </g>
        <g filter="url(#svg-98183040_10235_d)">
            <circle cx="474" cy="714.461" transform="rotate(180 474 714.461)" fill="#7173FA" fill-opacity=".1"
                r="176.199"></circle>
        </g>
        <mask id="svg-98183040_10235_f" style="mask-type:alpha" maskUnits="userSpaceOnUse" x="48" y="0" width="852"
            height="1428">
            <path transform="rotate(-90 48 1427.43)" fill="url(#svg-98183040_10235_e)" d="M48 1427.43h1427.43v852H48z">
            </path>
        </mask>
        <g mask="url(#svg-98183040_10235_f)">
            <path stroke="#fff" stroke-opacity=".4" stroke-width="1.487" d="M62.125 1243.8v-117.466h117.466V1243.8z">
            </path>
            <path stroke="#fff" stroke-opacity=".4" stroke-width="1.487"
                d="M62.125 1126.34v-117.466h117.466v117.466zm0-117.47V891.404h117.466v117.466zm0-117.467V773.937h117.466v117.466zm0-117.466V656.471h117.466v117.466zm0-117.466V539.005h117.466v117.466z">
            </path>
            <path fill="#fff" fill-opacity=".32" d="M61.382 539.749V420.796h118.953v118.953z"></path>
            <path stroke="#fff" stroke-opacity=".4" stroke-width="1.487"
                d="M62.125 539.006V421.54h117.466v117.466zm0-117.466V304.072h117.466V421.54z"></path>
            <path stroke="#fff" stroke-opacity=".4" stroke-width="1.487"
                d="M62.125 304.073V186.607h117.466v117.466zM179.591 1243.8v-117.466h117.466V1243.8z"></path>
            <path stroke="#fff" stroke-opacity=".4" stroke-width="1.487"
                d="M179.591 1126.34v-117.466h117.466v117.466zm0-117.47V891.404h117.466v117.466zm0-117.467V773.937h117.466v117.466zm0-117.466V656.471h117.466v117.466zm0-117.466V539.005h117.466v117.466z">
            </path>
            <path stroke="#fff" stroke-opacity=".4" stroke-width="1.487"
                d="M179.591 539.006V421.54h117.466v117.466zm0-117.467V304.073h117.466v117.466zm0-117.466V186.607h117.466v117.466zM297.057 1243.8v-117.466h117.466V1243.8z">
            </path>
            <path stroke="#fff" stroke-opacity=".4" stroke-width="1.487"
                d="M297.057 1126.34v-117.466h117.466v117.466zm0-117.47V891.404h117.466v117.466zm0-117.467V773.937h117.466v117.466z">
            </path>
            <path fill="#fff" fill-opacity=".32" d="M296.313 774.681V655.728h118.953v118.953z"></path>
            <path stroke="#fff" stroke-opacity=".4" stroke-width="1.487"
                d="M297.057 773.937V656.471h117.466v117.466zm0-117.466V539.005h117.466v117.466z"></path>
            <path fill="#fff" fill-opacity=".32" d="M296.313 539.749V420.796h118.953v118.953z"></path>
            <path stroke="#fff" stroke-opacity=".4" stroke-width="1.487"
                d="M297.057 539.006V421.54h117.466v117.466zm0-117.467V304.073h117.466v117.466zm0-117.466V186.607h117.466v117.466zM414.523 1243.8v-117.466h117.466V1243.8z">
            </path>
            <path stroke="#fff" stroke-opacity=".4" stroke-width="1.487"
                d="M414.523 1126.34v-117.466h117.466v117.466zm0-117.47V891.404h117.466v117.466zm0-117.467V773.937h117.466v117.466zm0-117.466V656.471h117.466v117.466zm0-117.466V539.005h117.466v117.466z">
            </path>
            <path stroke="#fff" stroke-opacity=".4" stroke-width="1.487"
                d="M414.523 539.006V421.54h117.466v117.466zm0-117.467V304.073h117.466v117.466zm0-117.466V186.607h117.466v117.466zM531.99 1243.8v-117.466h117.466V1243.8z">
            </path>
            <path stroke="#fff" stroke-opacity=".4" stroke-width="1.487"
                d="M531.99 1126.34v-117.466h117.466v117.466zm0-117.47V891.404h117.466v117.466z"></path>
            <path fill="#fff" fill-opacity=".32" d="M531.246 892.146V773.193h118.953v118.953z"></path>
            <path stroke="#fff" stroke-opacity=".4" stroke-width="1.487"
                d="M531.99 891.403V773.937h117.466v117.466zm0-117.466V656.471h117.466v117.466zm0-117.466V539.005h117.466v117.466z">
            </path>
            <path stroke="#fff" stroke-opacity=".4" stroke-width="1.487"
                d="M531.99 539.006V421.54h117.466v117.466zm0-117.467V304.073h117.466v117.466zm0-117.466V186.607h117.466v117.466zM649.454 1243.8v-117.466H766.92V1243.8z">
            </path>
            <path stroke="#fff" stroke-opacity=".4" stroke-width="1.487"
                d="M649.454 1126.34v-117.466H766.92v117.466zm0-117.47V891.404H766.92v117.466zm0-117.467V773.937H766.92v117.466zm0-117.466V656.471H766.92v117.466zm0-117.466V539.005H766.92v117.466z">
            </path>
            <path stroke="#fff" stroke-opacity=".4" stroke-width="1.487"
                d="M649.454 539.006V421.54H766.92v117.466zm0-117.467V304.073H766.92v117.466zm0-117.466V186.607H766.92v117.466zM766.921 1243.8v-117.466h117.466V1243.8z">
            </path>
            <path stroke="#fff" stroke-opacity=".4" stroke-width="1.487"
                d="M766.921 1126.34v-117.466h117.466v117.466zm0-117.47V891.404h117.466v117.466zm0-117.467V773.937h117.466v117.466zm0-117.466V656.471h117.466v117.466zm0-117.466V539.005h117.466v117.466z">
            </path>
            <path stroke="#fff" stroke-opacity=".4" stroke-width="1.487"
                d="M766.921 539.006V421.54h117.466v117.466zm0-117.467V304.073h117.466v117.466zm0-117.466V186.607h117.466v117.466z">
            </path>
        </g>
    </g>
    <defs>
        <radialGradient id="svg-98183040_10235_b" cx="0" cy="0" r="1" gradientUnits="userSpaceOnUse"
            gradientTransform="matrix(0 525.162 -879.853 0 1981.72 1953.43)">
            <stop stop-color="#D9D9D9" stop-opacity=".2"></stop>
            <stop offset=".802" stop-color="#D9D9D9" stop-opacity="0"></stop>
        </radialGradient>
        <radialGradient id="svg-98183040_10235_e" cx="0" cy="0" r="1" gradientUnits="userSpaceOnUse"
            gradientTransform="matrix(0 525.162 -879.853 0 761.717 1853.43)">
            <stop stop-color="#D9D9D9" stop-opacity=".2"></stop>
            <stop offset=".802" stop-color="#D9D9D9" stop-opacity="0"></stop>
        </radialGradient>
        <filter id="svg-98183040_10235_a" x="1220.42" y="340.88" width="947.163" height="947.162"
            filterUnits="userSpaceOnUse" color-interpolation-filters="sRGB">
            <feFlood flood-opacity="0" result="BackgroundImageFix"></feFlood>
            <feBlend in="SourceGraphic" in2="BackgroundImageFix" result="shape"></feBlend>
            <feGaussianBlur stdDeviation="148.691" result="effect1_foregroundBlur_107_2989"></feGaussianBlur>
        </filter>
        <filter id="svg-98183040_10235_d" x=".42" y="240.88" width="947.162" height="947.162"
            filterUnits="userSpaceOnUse" color-interpolation-filters="sRGB">
            <feFlood flood-opacity="0" result="BackgroundImageFix"></feFlood>
            <feBlend in="SourceGraphic" in2="BackgroundImageFix" result="shape"></feBlend>
            <feGaussianBlur stdDeviation="148.691" result="effect1_foregroundBlur_107_2989"></feGaussianBlur>
        </filter>
    </defs>
</svg>