<svg width="66" height="42" viewBox="-1 -1 66 42" fill="none" xmlns="http://www.w3.org/2000/svg" id="svg-2118145_5672">
    <g filter="url(#svg-2118145_5672_filter0_i_2690_16909)">
        <path
            d="M14.6164 40C11.6168 40 9.02471 39.1851 6.84005 37.5553C4.6554 35.9254 2.96489 33.6194 1.76853 30.6372C0.58951 27.655 0 24.1179 0 20.026C0 15.9168 0.58951 12.371 1.76853 9.38882C2.96489 6.38925 4.6554 4.07456 6.84005 2.44473C9.02471 0.814911 11.6168 0 14.6164 0C17.616 0 20.2081 0.814911 22.3927 2.44473C24.5947 4.07456 26.2852 6.38925 27.4642 9.38882C28.6433 12.371 29.2328 15.9168 29.2328 20.026C29.2328 24.1179 28.6433 27.655 27.4642 30.6372C26.2852 33.6194 24.5947 35.9254 22.3927 37.5553C20.2081 39.1851 17.616 40 14.6164 40ZM14.6164 35.0065C16.4889 35.0065 18.1014 34.4083 19.4538 33.212C20.8062 31.9983 21.8466 30.2731 22.5748 28.0364C23.303 25.7997 23.6671 23.1296 23.6671 20.026C23.6671 16.9051 23.303 14.2263 22.5748 11.9896C21.8466 9.73559 20.8062 8.0104 19.4538 6.81404C18.1014 5.60035 16.4889 4.9935 14.6164 4.9935C11.8075 4.9935 9.59688 6.32856 7.9844 8.9987C6.37191 11.6688 5.56567 15.3446 5.56567 20.026C5.56567 23.1296 5.92978 25.7997 6.658 28.0364C7.38622 30.2731 8.42653 31.9983 9.77893 33.212C11.1313 34.4083 12.7438 35.0065 14.6164 35.0065Z"
            fill="white" fill-opacity="0.1"></path>
        <path
            d="M14.6164 40C11.6168 40 9.02471 39.1851 6.84005 37.5553C4.6554 35.9254 2.96489 33.6194 1.76853 30.6372C0.58951 27.655 0 24.1179 0 20.026C0 15.9168 0.58951 12.371 1.76853 9.38882C2.96489 6.38925 4.6554 4.07456 6.84005 2.44473C9.02471 0.814911 11.6168 0 14.6164 0C17.616 0 20.2081 0.814911 22.3927 2.44473C24.5947 4.07456 26.2852 6.38925 27.4642 9.38882C28.6433 12.371 29.2328 15.9168 29.2328 20.026C29.2328 24.1179 28.6433 27.655 27.4642 30.6372C26.2852 33.6194 24.5947 35.9254 22.3927 37.5553C20.2081 39.1851 17.616 40 14.6164 40ZM14.6164 35.0065C16.4889 35.0065 18.1014 34.4083 19.4538 33.212C20.8062 31.9983 21.8466 30.2731 22.5748 28.0364C23.303 25.7997 23.6671 23.1296 23.6671 20.026C23.6671 16.9051 23.303 14.2263 22.5748 11.9896C21.8466 9.73559 20.8062 8.0104 19.4538 6.81404C18.1014 5.60035 16.4889 4.9935 14.6164 4.9935C11.8075 4.9935 9.59688 6.32856 7.9844 8.9987C6.37191 11.6688 5.56567 15.3446 5.56567 20.026C5.56567 23.1296 5.92978 25.7997 6.658 28.0364C7.38622 30.2731 8.42653 31.9983 9.77893 33.212C11.1313 34.4083 12.7438 35.0065 14.6164 35.0065Z"
            fill="url(#svg-2118145_5672_paint0_radial_2690_16909)" fill-opacity="0.2"></path>
        <path
            d="M32.1852 30.3771V25.6697L50.1826 0.624187H53.8497V6.76203H51.7691L38.401 25.4096V25.4616H63.0304V30.3771H32.1852ZM51.8211 39.3758V0.624187H57.4388V39.3758H51.8211Z"
            fill="white" fill-opacity="0.1"></path>
        <path
            d="M32.1852 30.3771V25.6697L50.1826 0.624187H53.8497V6.76203H51.7691L38.401 25.4096V25.4616H63.0304V30.3771H32.1852ZM51.8211 39.3758V0.624187H57.4388V39.3758H51.8211Z"
            fill="url(#svg-2118145_5672_paint1_radial_2690_16909)" fill-opacity="0.2"></path>
    </g>
    <path
        d="M1.53604 30.7291L1.5365 30.7303C2.74689 33.7475 4.46291 36.0937 6.69056 37.7556C8.92276 39.4209 11.5687 40.25 14.6164 40.25C17.6639 40.25 20.3096 39.4211 22.5417 37.756C24.7872 36.0939 26.5036 33.7471 27.6967 30.7291C28.89 27.7108 29.4828 24.1411 29.4828 20.026C29.4828 15.8938 28.8901 12.3154 27.6968 9.29696C26.5037 6.26193 24.7875 3.90631 22.5418 2.24407C20.3097 0.578966 17.6639 -0.25 14.6164 -0.25C11.5687 -0.25 8.92276 0.57906 6.69056 2.24435C4.46257 3.90651 2.74658 6.26177 1.53632 9.2962L1.53604 9.2969C0.342701 12.3153 -0.25 15.8938 -0.25 20.026C-0.25 24.1411 0.342744 27.7108 1.53604 30.7291ZM22.3369 12.0665L22.3371 12.067C23.055 14.272 23.4171 16.9233 23.4171 20.026C23.4171 23.1112 23.055 25.7539 22.3371 27.959C21.6186 30.1656 20.5985 31.8485 19.2874 33.0254C17.9827 34.1793 16.43 34.7565 14.6164 34.7565C12.8028 34.7565 11.2501 34.1793 9.94544 33.0255C8.63426 31.8486 7.61415 30.1656 6.89572 27.959C6.17776 25.7539 5.81567 23.1112 5.81567 20.026C5.81567 15.369 6.61843 11.7442 8.1984 9.12794C9.77162 6.52282 11.9061 5.2435 14.6164 5.2435C16.4294 5.2435 17.9818 5.82894 19.2869 7.00011L19.2882 7.00129C20.5982 8.16011 21.6182 9.8421 22.3369 12.0665ZM31.9352 30.3771V30.6271H32.1852H51.5711V39.3758V39.6258H51.8211H57.4388H57.6888V39.3758V30.6271H63.0304H63.2804V30.3771V25.4616V25.2116H63.0304H57.6888V0.624187V0.374187H57.4388H54.0997H53.8497H51.8211H51.5711H50.1826H50.0544L49.9796 0.4783L31.9822 25.5238L31.9352 25.5892V25.6697V30.3771ZM51.5711 25.2116H38.8506L51.5711 7.4673V25.2116Z"
        stroke="white" stroke-opacity="0.1" stroke-width="0.5"></path>
    <defs>
        <filter id="svg-2118145_5672_filter0_i_2690_16909" x="-0.5" y="-0.5" width="64.0312" height="45"
            filterUnits="userSpaceOnUse" color-interpolation-filters="sRGB">
            <feFlood flood-opacity="0" result="BackgroundImageFix"></feFlood>
            <feBlend mode="normal" in="SourceGraphic" in2="BackgroundImageFix" result="shape"></feBlend>
            <feColorMatrix in="SourceAlpha" type="matrix" values="0 0 0 0 0 0 0 0 0 0 0 0 0 0 0 0 0 0 127 0"
                result="hardAlpha"></feColorMatrix>
            <feOffset dy="4"></feOffset>
            <feGaussianBlur stdDeviation="2"></feGaussianBlur>
            <feComposite in2="hardAlpha" operator="arithmetic" k2="-1" k3="1"></feComposite>
            <feColorMatrix type="matrix" values="0 0 0 0 1 0 0 0 0 1 0 0 0 0 1 0 0 0 0.25 0"></feColorMatrix>
            <feBlend mode="normal" in2="shape" result="effect1_innerShadow_2690_16909"></feBlend>
        </filter>
        <radialGradient id="svg-2118145_5672_paint0_radial_2690_16909" cx="0" cy="0" r="1"
            gradientUnits="userSpaceOnUse"
            gradientTransform="translate(38.1742 39.948) rotate(86.3891) scale(50.5108 79.4537)">
            <stop stop-color="white"></stop>
            <stop offset="1" stop-color="white" stop-opacity="0"></stop>
        </radialGradient>
        <radialGradient id="svg-2118145_5672_paint1_radial_2690_16909" cx="0" cy="0" r="1"
            gradientUnits="userSpaceOnUse"
            gradientTransform="translate(38.1742 39.948) rotate(86.3891) scale(50.5108 79.4537)">
            <stop stop-color="white"></stop>
            <stop offset="1" stop-color="white" stop-opacity="0"></stop>
        </radialGradient>
    </defs>
</svg>