<svg xmlns="http://www.w3.org/2000/svg" width="1440" height="800" fill="none"><g clip-path="url(#a)"><g filter="url(#b)"><path fill="#fff" fill-opacity=".1" d="M925-280.087 1117.78-566 966.569-256.087l-450 779.423-160.784 230.487L475 499.336l450-779.423z"/></g><g filter="url(#c)"><path fill="#fff" fill-opacity=".1" d="M1173.6-479.087 1366.39-765l-151.22 309.913-449.998 779.423-160.785 230.487 119.216-254.487L1173.6-479.087z"/></g><g filter="url(#d)"><path fill="#fff" fill-opacity=".1" d="M1446-678.087 1638.78-964l-151.21 309.913-450 779.423-160.785 230.487L996 101.336l450-779.423z"/></g><g filter="url(#e)"><path fill="#fff" fill-opacity=".1" d="M910-479.087 1102.78-765 951.569-455.087l-450 779.423-160.784 230.487L460 300.336l450-779.423z"/></g><g filter="url(#f)"><path fill="#fff" fill-opacity=".1" d="M925-784.087 1117.78-1070 966.569-760.087l-450 779.423-160.784 230.487L475-4.664l450-779.423z"/></g></g><defs><filter id="b" width="922" height="1479.82" x="275.785" y="-646" color-interpolation-filters="sRGB" filterUnits="userSpaceOnUse"><feFlood flood-opacity="0" result="BackgroundImageFix"/><feBlend in="SourceGraphic" in2="BackgroundImageFix" result="shape"/><feGaussianBlur result="effect1_foregroundBlur_714_13361" stdDeviation="40"/></filter><filter id="c" width="882" height="1439.82" x="544.387" y="-825" color-interpolation-filters="sRGB" filterUnits="userSpaceOnUse"><feFlood flood-opacity="0" result="BackgroundImageFix"/><feBlend in="SourceGraphic" in2="BackgroundImageFix" result="shape"/><feGaussianBlur result="effect1_foregroundBlur_714_13361" stdDeviation="30"/></filter><filter id="d" width="922" height="1479.82" x="796.785" y="-1044" color-interpolation-filters="sRGB" filterUnits="userSpaceOnUse"><feFlood flood-opacity="0" result="BackgroundImageFix"/><feBlend in="SourceGraphic" in2="BackgroundImageFix" result="shape"/><feGaussianBlur result="effect1_foregroundBlur_714_13361" stdDeviation="40"/></filter><filter id="e" width="882" height="1439.82" x="280.785" y="-825" color-interpolation-filters="sRGB" filterUnits="userSpaceOnUse"><feFlood flood-opacity="0" result="BackgroundImageFix"/><feBlend in="SourceGraphic" in2="BackgroundImageFix" result="shape"/><feGaussianBlur result="effect1_foregroundBlur_714_13361" stdDeviation="30"/></filter><filter id="f" width="922" height="1479.82" x="275.785" y="-1150" color-interpolation-filters="sRGB" filterUnits="userSpaceOnUse"><feFlood flood-opacity="0" result="BackgroundImageFix"/><feBlend in="SourceGraphic" in2="BackgroundImageFix" result="shape"/><feGaussianBlur result="effect1_foregroundBlur_714_13361" stdDeviation="40"/></filter><clipPath id="a"><path fill="#fff" d="M0 0h1440v800H0z"/></clipPath></defs></svg>