<svg xmlns="http://www.w3.org/2000/svg" fill="none" viewBox="0 0 858 854">
    <g clip-path="url(#a)">
        <path fill="url(#b)" fill-opacity=".06" d="M228.571 398.473h-57.142v56.925h57.142v-56.925z" />
        <path fill="url(#c)" fill-opacity=".06" d="M457.143 227.699H400v56.925h57.143v-56.925z" />
        <path fill="url(#d)" fill-opacity=".06" d="M400 569.248h-57.143v56.924H400v-56.924z" />
        <path fill="url(#e)" fill-opacity=".06" d="M628.571 455.398h-57.142v56.925h57.142v-56.925z" />
        <path fill="url(#f)" fill-opacity=".06" d="M457.143 398.473H400v56.925h57.143v-56.925z" />
        <path stroke="url(#g)" stroke-opacity=".1"
            d="M57.143 0H0v56.925M57.143 0v56.925m0-56.925h57.143M57.143 56.925H0m57.143 0h57.143m-57.143 0v56.925M0 56.925v56.925M114.286 0v56.925m0-56.925h57.143m-57.143 56.925h57.143m-57.143 0v56.925M171.429 0v56.925m0-56.925h57.142m-57.142 56.925h57.142m-57.142 0v56.925M228.571 0v56.925m0-56.925h57.143m-57.143 56.925h57.143m-57.143 0v56.925M285.714 0v56.925m0-56.925h57.143m-57.143 56.925h57.143m-57.143 0v56.925M342.857 0v56.925m0-56.925H400m-57.143 56.925H400m-57.143 0v56.925M400 0v56.925M400 0h57.143M400 56.925h57.143m-57.143 0v56.925M457.143 0v56.925m0-56.925h57.143m-57.143 56.925h57.143m-57.143 0v56.925M514.286 0v56.925m0-56.925h57.143m-57.143 56.925h57.143m-57.143 0v56.925M571.429 0v56.925m0-56.925h57.142m-57.142 56.925h57.142m-57.142 0v56.925M628.571 0v56.925m0-56.925h57.143m-57.143 56.925h57.143m-57.143 0v56.925M685.714 0v56.925m0-56.925h57.143m-57.143 56.925h57.143m-57.143 0v56.925M742.857 0v56.925m0-56.925H800m-57.143 56.925H800m-57.143 0v56.925M800 0v56.925M800 0h57.143v56.925m-57.143 0h57.143m-57.143 0v56.925m57.143-56.925v56.925m-800 0H0m57.143 0h57.143m-57.143 0v56.924M0 113.85v56.924m114.286-56.924h57.143m-57.143 0v56.924m57.143-56.924h57.142m-57.142 0v56.924m57.142-56.924h57.143m-57.143 0v56.924m57.143-56.924h57.143m-57.143 0v56.924m57.143-56.924H400m-57.143 0v56.924M400 113.85h57.143m-57.143 0v56.924m57.143-56.924h57.143m-57.143 0v56.924m57.143-56.924h57.143m-57.143 0v56.924m57.143-56.924h57.142m-57.142 0v56.924m57.142-56.924h57.143m-57.143 0v56.924m57.143-56.924h57.143m-57.143 0v56.924m57.143-56.924H800m-57.143 0v56.924M800 113.85h57.143m-57.143 0v56.924m57.143-56.924v56.924m-800 0H0m57.143 0h57.143m-57.143 0v56.925M0 170.774v56.925m114.286-56.925h57.143m-57.143 0v56.925m57.143-56.925h57.142m-57.142 0v56.925m57.142-56.925h57.143m-57.143 0v56.925m57.143-56.925h57.143m-57.143 0v56.925m57.143-56.925H400m-57.143 0v56.925M400 170.774h57.143m-57.143 0v56.925m57.143-56.925h57.143m-57.143 0v56.925m57.143-56.925h57.143m-57.143 0v56.925m57.143-56.925h57.142m-57.142 0v56.925m57.142-56.925h57.143m-57.143 0v56.925m57.143-56.925h57.143m-57.143 0v56.925m57.143-56.925H800m-57.143 0v56.925M800 170.774h57.143m-57.143 0v56.925m57.143-56.925v56.925m-800 0H0m57.143 0h57.143m-57.143 0v56.925M0 227.699v56.925m114.286-56.925h57.143m-57.143 0v56.925m57.143-56.925h57.142m-57.142 0v56.925m57.142-56.925h57.143m-57.143 0v56.925m57.143-56.925h57.143m-57.143 0v56.925m57.143-56.925H400m-57.143 0v56.925M400 227.699h57.143m-57.143 0v56.925m57.143-56.925h57.143m-57.143 0v56.925m57.143-56.925h57.143m-57.143 0v56.925m57.143-56.925h57.142m-57.142 0v56.925m57.142-56.925h57.143m-57.143 0v56.925m57.143-56.925h57.143m-57.143 0v56.925m57.143-56.925H800m-57.143 0v56.925M800 227.699h57.143m-57.143 0v56.925m57.143-56.925v56.925m-800 0H0m57.143 0h57.143m-57.143 0v56.925M0 284.624v56.925m114.286-56.925h57.143m-57.143 0v56.925m57.143-56.925h57.142m-57.142 0v56.925m57.142-56.925h57.143m-57.143 0v56.925m57.143-56.925h57.143m-57.143 0v56.925m57.143-56.925H400m-57.143 0v56.925M400 284.624h57.143m-57.143 0v56.925m57.143-56.925h57.143m-57.143 0v56.925m57.143-56.925h57.143m-57.143 0v56.925m57.143-56.925h57.142m-57.142 0v56.925m57.142-56.925h57.143m-57.143 0v56.925m57.143-56.925h57.143m-57.143 0v56.925m57.143-56.925H800m-57.143 0v56.925M800 284.624h57.143m-57.143 0v56.925m57.143-56.925v56.925m-800 0H0m57.143 0h57.143m-57.143 0v56.924M0 341.549v56.924m114.286-56.924h57.143m-57.143 0v56.924m57.143-56.924h57.142m-57.142 0v56.924m57.142-56.924h57.143m-57.143 0v56.924m57.143-56.924h57.143m-57.143 0v56.924m57.143-56.924H400m-57.143 0v56.924M400 341.549h57.143m-57.143 0v56.924m57.143-56.924h57.143m-57.143 0v56.924m57.143-56.924h57.143m-57.143 0v56.924m57.143-56.924h57.142m-57.142 0v56.924m57.142-56.924h57.143m-57.143 0v56.924m57.143-56.924h57.143m-57.143 0v56.924m57.143-56.924H800m-57.143 0v56.924M800 341.549h57.143m-57.143 0v56.924m57.143-56.924v56.924m-800 0H0m57.143 0h57.143m-57.143 0v56.925M0 398.473v56.925m114.286-56.925h57.143m-57.143 0v56.925m57.143-56.925h57.142m-57.142 0v56.925m57.142-56.925h57.143m-57.143 0v56.925m57.143-56.925h57.143m-57.143 0v56.925m57.143-56.925H400m-57.143 0v56.925m0-56.925H400m-57.143 0v56.925m0-56.925H400m0 0h57.143m-57.143 0v56.925m0-56.925v56.925m0-56.925h57.143m0 0h57.143m-57.143 0v56.925m0-56.925v56.925m57.143-56.925h57.143m-57.143 0v56.925m57.143-56.925h57.142m-57.142 0v56.925m57.142-56.925h57.143m-57.143 0v56.925m57.143-56.925h57.143m-57.143 0v56.925m57.143-56.925H800m-57.143 0v56.925M800 398.473h57.143m-57.143 0v56.925m57.143-56.925v56.925m-800 0H0m57.143 0h57.143m-57.143 0v56.925M0 455.398v56.925m114.286-56.925h57.143m-57.143 0v56.925m57.143-56.925h57.142m-57.142 0v56.925m57.142-56.925h57.143m-57.143 0v56.925m57.143-56.925h57.143m-57.143 0v56.925m57.143-56.925H400m-57.143 0v56.925m0-56.925H400m0 0h57.143m-57.143 0v56.925m0-56.925h57.143m0 0h57.143m-57.143 0v56.925m57.143-56.925h57.143m-57.143 0v56.925m57.143-56.925h57.142m-57.142 0v56.925m57.142-56.925h57.143m-57.143 0v56.925m57.143-56.925h57.143m-57.143 0v56.925m57.143-56.925H800m-57.143 0v56.925M800 455.398h57.143m-57.143 0v56.925m57.143-56.925v56.925m-800 0H0m57.143 0h57.143m-57.143 0v56.925M0 512.323v56.925m114.286-56.925h57.143m-57.143 0v56.925m57.143-56.925h57.142m-57.142 0v56.925m57.142-56.925h57.143m-57.143 0v56.925m57.143-56.925h57.143m-57.143 0v56.925m57.143-56.925H400m-57.143 0v56.925M400 512.323h57.143m-57.143 0v56.925m57.143-56.925h57.143m-57.143 0v56.925m57.143-56.925h57.143m-57.143 0v56.925m57.143-56.925h57.142m-57.142 0v56.925m57.142-56.925h57.143m-57.143 0v56.925m57.143-56.925h57.143m-57.143 0v56.925m57.143-56.925H800m-57.143 0v56.925M800 512.323h57.143m-57.143 0v56.925m57.143-56.925v56.925m-800 0H0m57.143 0h57.143m-57.143 0v56.924M0 569.248v56.924m114.286-56.924h57.143m-57.143 0v56.924m57.143-56.924h57.142m-57.142 0v56.924m57.142-56.924h57.143m-57.143 0v56.924m57.143-56.924h57.143m-57.143 0v56.924m57.143-56.924H400m-57.143 0v56.924M400 569.248h57.143m-57.143 0v56.924m57.143-56.924h57.143m-57.143 0v56.924m57.143-56.924h57.143m-57.143 0v56.924m57.143-56.924h57.142m-57.142 0v56.924m57.142-56.924h57.143m-57.143 0v56.924m57.143-56.924h57.143m-57.143 0v56.924m57.143-56.924H800m-57.143 0v56.924M800 569.248h57.143m-57.143 0v56.924m57.143-56.924v56.924m-800 0H0m57.143 0h57.143m-57.143 0v56.925M0 626.172v56.925m114.286-56.925h57.143m-57.143 0v56.925m57.143-56.925h57.142m-57.142 0v56.925m57.142-56.925h57.143m-57.143 0v56.925m57.143-56.925h57.143m-57.143 0v56.925m57.143-56.925H400m-57.143 0v56.925M400 626.172h57.143m-57.143 0v56.925m57.143-56.925h57.143m-57.143 0v56.925m57.143-56.925h57.143m-57.143 0v56.925m57.143-56.925h57.142m-57.142 0v56.925m57.142-56.925h57.143m-57.143 0v56.925m57.143-56.925h57.143m-57.143 0v56.925m57.143-56.925H800m-57.143 0v56.925M800 626.172h57.143m-57.143 0v56.925m57.143-56.925v56.925m-800 0H0m57.143 0h57.143m-57.143 0v56.925M0 683.097v56.925m114.286-56.925h57.143m-57.143 0v56.925m57.143-56.925h57.142m-57.142 0v56.925m57.142-56.925h57.143m-57.143 0v56.925m57.143-56.925h57.143m-57.143 0v56.925m57.143-56.925H400m-57.143 0v56.925M400 683.097h57.143m-57.143 0v56.925m57.143-56.925h57.143m-57.143 0v56.925m57.143-56.925h57.143m-57.143 0v56.925m57.143-56.925h57.142m-57.142 0v56.925m57.142-56.925h57.143m-57.143 0v56.925m57.143-56.925h57.143m-57.143 0v56.925m57.143-56.925H800m-57.143 0v56.925M800 683.097h57.143m-57.143 0v56.925m57.143-56.925v56.925m-800 0H0m57.143 0h57.143m-57.143 0v56.925M0 740.022v56.925m114.286-56.925h57.143m-57.143 0v56.925m57.143-56.925h57.142m-57.142 0v56.925m57.142-56.925h57.143m-57.143 0v56.925m57.143-56.925h57.143m-57.143 0v56.925m57.143-56.925H400m-57.143 0v56.925M400 740.022h57.143m-57.143 0v56.925m57.143-56.925h57.143m-57.143 0v56.925m57.143-56.925h57.143m-57.143 0v56.925m57.143-56.925h57.142m-57.142 0v56.925m57.142-56.925h57.143m-57.143 0v56.925m57.143-56.925h57.143m-57.143 0v56.925m57.143-56.925H800m-57.143 0v56.925M800 740.022h57.143m-57.143 0v56.925m57.143-56.925v56.925m-800 0H0m57.143 0h57.143m-57.143 0v56.924M0 796.947v56.924h57.143m57.143-56.924h57.143m-57.143 0v56.924m57.143-56.924h57.142m-57.142 0v56.924m57.142-56.924h57.143m-57.143 0v56.924m57.143-56.924h57.143m-57.143 0v56.924m57.143-56.924H400m-57.143 0v56.924M400 796.947h57.143m-57.143 0v56.924m57.143-56.924h57.143m-57.143 0v56.924m57.143-56.924h57.143m-57.143 0v56.924m57.143-56.924h57.142m-57.142 0v56.924m57.142-56.924h57.143m-57.143 0v56.924m57.143-56.924h57.143m-57.143 0v56.924m57.143-56.924H800m-57.143 0v56.924M800 796.947h57.143m-57.143 0v56.924m57.143-56.924v56.924H800m-742.857 0h57.143m0 0h57.143m0 0h57.142m0 0h57.143m0 0h57.143m0 0H400m0 0h57.143m0 0h57.143m0 0h57.143m0 0h57.142m0 0h57.143m0 0h57.143m0 0H800" />
    </g>
    <defs>
        <radialGradient id="b" cx="0" cy="0" r="1"
            gradientTransform="matrix(-.49998 40.3454 -73.45926 -.91034 201 456.75)" gradientUnits="userSpaceOnUse">
            <stop stop-color="#fff" stop-opacity=".8" />
            <stop offset="1" stop-color="#05041F" />
        </radialGradient>
        <radialGradient id="c" cx="0" cy="0" r="1" gradientTransform="matrix(0 42.8359 -77.9939 0 429 285.407)"
            gradientUnits="userSpaceOnUse">
            <stop stop-color="#fff" stop-opacity=".8" />
            <stop offset="1" stop-color="#05041F" />
        </radialGradient>
        <radialGradient id="d" cx="0" cy="0" r="1"
            gradientTransform="matrix(-1.50003 41.3416 -75.27237 -2.73117 371.5 625.105)"
            gradientUnits="userSpaceOnUse">
            <stop stop-color="#fff" stop-opacity=".8" />
            <stop offset="1" stop-color="#05041F" />
        </radialGradient>
        <radialGradient id="e" cx="0" cy="0" r="1"
            gradientTransform="matrix(-.50005 40.3454 -73.45926 -.91047 601.5 513.034)" gradientUnits="userSpaceOnUse">
            <stop stop-color="#fff" stop-opacity=".8" />
            <stop offset="1" stop-color="#fff" stop-opacity="0" />
            <stop offset="1" stop-color="#05041F" />
        </radialGradient>
        <radialGradient id="f" cx="0" cy="0" r="1" gradientTransform="matrix(0 43.8321 -79.8077 0 429 455.754)"
            gradientUnits="userSpaceOnUse">
            <stop stop-color="#fff" stop-opacity=".8" />
            <stop offset="1" stop-color="#fff" stop-opacity="0" />
            <stop offset="1" stop-color="#05041F" />
        </radialGradient>
        <radialGradient id="g" cx="0" cy="0" r="1" gradientTransform="matrix(0 302.342 -303.5 0 429 427.363)"
            gradientUnits="userSpaceOnUse">
            <stop stop-color="#fff" />
            <stop offset="1" stop-color="#fff" stop-opacity="0" />
        </radialGradient>
        <clipPath id="a">
            <path fill="#fff" d="M0 0h857.143v853.871H0z" />
        </clipPath>
    </defs>
</svg>