<svg width="64" height="42" viewBox="-1 -1 64 42" fill="none" xmlns="http://www.w3.org/2000/svg"
    id="svg1801710659_10306">
    <g filter="url(#svg1801710659_10306_filter0_i_2690_16551)">
        <path
            d="M14.6164 40C11.6168 40 9.02471 39.1851 6.84005 37.5553C4.6554 35.9254 2.96489 33.6194 1.76853 30.6372C0.58951 27.655 0 24.1179 0 20.026C0 15.9168 0.58951 12.371 1.76853 9.38882C2.96489 6.38925 4.6554 4.07456 6.84005 2.44473C9.02471 0.814911 11.6168 0 14.6164 0C17.616 0 20.2081 0.814911 22.3927 2.44473C24.5947 4.07456 26.2852 6.38925 27.4642 9.38882C28.6433 12.371 29.2328 15.9168 29.2328 20.026C29.2328 24.1179 28.6433 27.655 27.4642 30.6372C26.2852 33.6194 24.5947 35.9254 22.3927 37.5553C20.2081 39.1851 17.616 40 14.6164 40ZM14.6164 35.0065C16.4889 35.0065 18.1014 34.4083 19.4538 33.212C20.8062 31.9983 21.8466 30.2731 22.5748 28.0364C23.303 25.7997 23.6671 23.1296 23.6671 20.026C23.6671 16.9051 23.303 14.2263 22.5748 11.9896C21.8466 9.73559 20.8062 8.0104 19.4538 6.81404C18.1014 5.60035 16.4889 4.9935 14.6164 4.9935C11.8075 4.9935 9.59688 6.32857 7.9844 8.9987C6.37191 11.6688 5.56567 15.3446 5.56567 20.026C5.56567 23.1296 5.92978 25.7997 6.658 28.0364C7.38622 30.2731 8.42653 31.9983 9.77893 33.212C11.1313 34.4083 12.7438 35.0065 14.6164 35.0065Z"
            fill="white" fill-opacity="0.1"></path>
        <path
            d="M14.6164 40C11.6168 40 9.02471 39.1851 6.84005 37.5553C4.6554 35.9254 2.96489 33.6194 1.76853 30.6372C0.58951 27.655 0 24.1179 0 20.026C0 15.9168 0.58951 12.371 1.76853 9.38882C2.96489 6.38925 4.6554 4.07456 6.84005 2.44473C9.02471 0.814911 11.6168 0 14.6164 0C17.616 0 20.2081 0.814911 22.3927 2.44473C24.5947 4.07456 26.2852 6.38925 27.4642 9.38882C28.6433 12.371 29.2328 15.9168 29.2328 20.026C29.2328 24.1179 28.6433 27.655 27.4642 30.6372C26.2852 33.6194 24.5947 35.9254 22.3927 37.5553C20.2081 39.1851 17.616 40 14.6164 40ZM14.6164 35.0065C16.4889 35.0065 18.1014 34.4083 19.4538 33.212C20.8062 31.9983 21.8466 30.2731 22.5748 28.0364C23.303 25.7997 23.6671 23.1296 23.6671 20.026C23.6671 16.9051 23.303 14.2263 22.5748 11.9896C21.8466 9.73559 20.8062 8.0104 19.4538 6.81404C18.1014 5.60035 16.4889 4.9935 14.6164 4.9935C11.8075 4.9935 9.59688 6.32857 7.9844 8.9987C6.37191 11.6688 5.56567 15.3446 5.56567 20.026C5.56567 23.1296 5.92978 25.7997 6.658 28.0364C7.38622 30.2731 8.42653 31.9983 9.77893 33.212C11.1313 34.4083 12.7438 35.0065 14.6164 35.0065Z"
            fill="url(#svg1801710659_10306_paint0_radial_2690_16551)" fill-opacity="0.2"></path>
        <path
            d="M47.1657 40C44.2875 40 41.7994 39.4365 39.7014 38.3095C37.6035 37.1825 35.9823 35.6394 34.838 33.6801C33.6936 31.7035 33.1215 29.4668 33.1215 26.9701H38.9212C38.9212 28.6693 39.242 30.1344 39.8835 31.3654C40.525 32.5791 41.4526 33.5067 42.6663 34.1482C43.8974 34.7898 45.3625 35.1105 47.0616 35.1105C48.6915 35.1105 50.1219 34.8331 51.3529 34.2783C52.584 33.7234 53.5462 32.9606 54.2398 31.9896C54.9333 31.0013 55.2801 29.883 55.2801 28.6346C55.2801 27.2822 54.9073 26.1118 54.1618 25.1235C53.4162 24.1179 52.3846 23.3377 51.0668 22.7828C49.7491 22.228 48.206 21.9506 46.4375 21.9506H43.1865V17.1651H46.4375C47.9979 17.1651 49.359 16.9051 50.5207 16.3849C51.6997 15.8648 52.61 15.1452 53.2515 14.2263C53.9104 13.3073 54.2398 12.2237 54.2398 10.9753C54.2398 9.76159 53.9364 8.69528 53.3295 7.77633C52.7227 6.85739 51.8731 6.13784 50.7808 5.61769C49.6884 5.09753 48.4054 4.83745 46.9316 4.83745C45.4231 4.83745 44.1141 5.13221 43.0044 5.72172C41.9121 6.29389 41.0625 7.11747 40.4557 8.19246C39.8661 9.26745 39.5714 10.5505 39.5714 12.0416H33.9277C33.9277 9.68357 34.4739 7.60295 35.5662 5.79974C36.6585 3.97919 38.1756 2.55743 40.1176 1.53446C42.0768 0.511487 44.3568 0 46.9576 0C49.4197 0 51.6217 0.459471 53.5636 1.37841C55.5228 2.29736 57.066 3.5544 58.193 5.14954C59.32 6.72735 59.8835 8.51322 59.8835 10.5072C59.8835 12.6398 59.2333 14.495 57.9329 16.0728C56.6498 17.6333 54.9247 18.7083 52.7573 19.2978V19.3758C54.4565 19.6359 55.9303 20.2081 57.1787 21.0923C58.427 21.9766 59.3893 23.0863 60.0655 24.4213C60.7417 25.7391 61.0798 27.1955 61.0798 28.7906C61.0798 30.9233 60.473 32.8392 59.2593 34.5384C58.0629 36.2202 56.4158 37.5553 54.3178 38.5436C52.2372 39.5145 49.8531 40 47.1657 40Z"
            fill="white" fill-opacity="0.1"></path>
        <path
            d="M47.1657 40C44.2875 40 41.7994 39.4365 39.7014 38.3095C37.6035 37.1825 35.9823 35.6394 34.838 33.6801C33.6936 31.7035 33.1215 29.4668 33.1215 26.9701H38.9212C38.9212 28.6693 39.242 30.1344 39.8835 31.3654C40.525 32.5791 41.4526 33.5067 42.6663 34.1482C43.8974 34.7898 45.3625 35.1105 47.0616 35.1105C48.6915 35.1105 50.1219 34.8331 51.3529 34.2783C52.584 33.7234 53.5462 32.9606 54.2398 31.9896C54.9333 31.0013 55.2801 29.883 55.2801 28.6346C55.2801 27.2822 54.9073 26.1118 54.1618 25.1235C53.4162 24.1179 52.3846 23.3377 51.0668 22.7828C49.7491 22.228 48.206 21.9506 46.4375 21.9506H43.1865V17.1651H46.4375C47.9979 17.1651 49.359 16.9051 50.5207 16.3849C51.6997 15.8648 52.61 15.1452 53.2515 14.2263C53.9104 13.3073 54.2398 12.2237 54.2398 10.9753C54.2398 9.76159 53.9364 8.69528 53.3295 7.77633C52.7227 6.85739 51.8731 6.13784 50.7808 5.61769C49.6884 5.09753 48.4054 4.83745 46.9316 4.83745C45.4231 4.83745 44.1141 5.13221 43.0044 5.72172C41.9121 6.29389 41.0625 7.11747 40.4557 8.19246C39.8661 9.26745 39.5714 10.5505 39.5714 12.0416H33.9277C33.9277 9.68357 34.4739 7.60295 35.5662 5.79974C36.6585 3.97919 38.1756 2.55743 40.1176 1.53446C42.0768 0.511487 44.3568 0 46.9576 0C49.4197 0 51.6217 0.459471 53.5636 1.37841C55.5228 2.29736 57.066 3.5544 58.193 5.14954C59.32 6.72735 59.8835 8.51322 59.8835 10.5072C59.8835 12.6398 59.2333 14.495 57.9329 16.0728C56.6498 17.6333 54.9247 18.7083 52.7573 19.2978V19.3758C54.4565 19.6359 55.9303 20.2081 57.1787 21.0923C58.427 21.9766 59.3893 23.0863 60.0655 24.4213C60.7417 25.7391 61.0798 27.1955 61.0798 28.7906C61.0798 30.9233 60.473 32.8392 59.2593 34.5384C58.0629 36.2202 56.4158 37.5553 54.3178 38.5436C52.2372 39.5145 49.8531 40 47.1657 40Z"
            fill="url(#svg1801710659_10306_paint1_radial_2690_16551)" fill-opacity="0.2"></path>
    </g>
    <path
        d="M1.53604 30.7291L1.5365 30.7303C2.74689 33.7475 4.46291 36.0937 6.69056 37.7556C8.92276 39.4209 11.5687 40.25 14.6164 40.25C17.6639 40.25 20.3096 39.4211 22.5417 37.756C24.7872 36.0939 26.5036 33.7471 27.6967 30.7291C28.89 27.7108 29.4828 24.1411 29.4828 20.026C29.4828 15.8938 28.8901 12.3154 27.6968 9.29696C26.5037 6.26193 24.7875 3.90631 22.5418 2.24407C20.3097 0.578966 17.6639 -0.25 14.6164 -0.25C11.5687 -0.25 8.92276 0.57906 6.69056 2.24435C4.46257 3.90651 2.74658 6.26177 1.53632 9.2962L1.53604 9.2969C0.342701 12.3153 -0.25 15.8938 -0.25 20.026C-0.25 24.1411 0.342744 27.7108 1.53604 30.7291ZM22.3369 12.0665L22.3371 12.067C23.055 14.272 23.4171 16.9233 23.4171 20.026C23.4171 23.1112 23.055 25.7539 22.3371 27.959C21.6186 30.1656 20.5985 31.8485 19.2874 33.0254C17.9827 34.1793 16.43 34.7565 14.6164 34.7565C12.8028 34.7565 11.2501 34.1793 9.94544 33.0255C8.63426 31.8486 7.61415 30.1656 6.89572 27.959C6.17776 25.7539 5.81567 23.1112 5.81567 20.026C5.81567 15.369 6.61843 11.7442 8.1984 9.12794C9.77162 6.52283 11.9061 5.2435 14.6164 5.2435C16.4294 5.2435 17.9818 5.82894 19.2869 7.00011L19.2882 7.00129C20.5982 8.16011 21.6182 9.8421 22.3369 12.0665ZM34.6216 33.8054L34.6221 33.8062C35.7908 35.8072 37.4467 37.3821 39.5831 38.5297C41.7243 39.68 44.2547 40.25 47.1657 40.25C49.8835 40.25 52.3046 39.7589 54.4235 38.7701L54.4244 38.7697C56.5561 37.7655 58.2386 36.4045 59.4627 34.6837C60.7074 32.9411 61.3298 30.9742 61.3298 28.7906C61.3298 27.1591 60.9837 25.6632 60.2882 24.3076C59.5932 22.9358 58.6037 21.7954 57.3232 20.8883C56.2524 20.1299 55.0235 19.5971 53.6397 19.2872C55.4748 18.6514 56.973 17.6339 58.126 16.2316C59.4649 14.607 60.1335 12.695 60.1335 10.5072C60.1335 8.46296 59.5547 6.62618 58.3969 5.00485C57.2423 3.37089 55.6639 2.08743 53.6701 1.15222C51.6903 0.215446 49.4511 -0.25 46.9576 -0.25C44.3236 -0.25 42.0026 0.268191 40.0018 1.31285L40.001 1.31327C38.0201 2.35681 36.4685 3.80998 35.3518 5.67112C34.2335 7.51767 33.6777 9.64385 33.6777 12.0416V12.2916H33.9277H39.5714H39.8214V12.0416C39.8214 10.5841 40.1093 9.34464 40.6742 8.31391C41.2573 7.28155 42.0713 6.4927 43.1204 5.94318L43.1217 5.9425C44.1887 5.37566 45.4559 5.08745 46.9316 5.08745C48.3761 5.08745 49.621 5.34234 50.6733 5.8434C51.7287 6.34598 52.5416 7.03682 53.1209 7.9141C53.698 8.78803 53.9898 9.80538 53.9898 10.9753C53.9898 12.1771 53.6736 13.2085 53.0483 14.0806L53.0465 14.0832C52.4349 14.9592 51.5633 15.6517 50.4198 16.1562L50.4185 16.1567C49.2954 16.6596 47.9705 16.9151 46.4375 16.9151H43.1865H42.9365V17.1651V21.9506V22.2006H43.1865H46.4375C48.1803 22.2006 49.6892 22.474 50.9698 23.0132C52.2522 23.5532 53.2457 24.3076 53.9609 25.2724L53.9622 25.2741C54.672 26.215 55.0301 27.3312 55.0301 28.6346C55.0301 29.8331 54.6983 30.9006 54.0358 31.8451C53.3712 32.7752 52.446 33.5114 51.2502 34.0504C50.0574 34.588 48.6632 34.8605 47.0616 34.8605C45.394 34.8605 43.9704 34.5458 42.7822 33.9267C41.6136 33.3088 40.7227 32.4179 40.1049 31.2493C39.4859 30.0612 39.1712 28.6376 39.1712 26.9701V26.7201H38.9212H33.1215H32.8715V26.9701C32.8715 29.5066 33.4532 31.7872 34.6216 33.8054Z"
        stroke="white" stroke-opacity="0.1" stroke-width="0.5"></path>
    <defs>
        <filter id="svg1801710659_10306_filter0_i_2690_16551" x="-0.5" y="-0.5" width="62.0801" height="45"
            filterUnits="userSpaceOnUse" color-interpolation-filters="sRGB">
            <feFlood flood-opacity="0" result="BackgroundImageFix"></feFlood>
            <feBlend mode="normal" in="SourceGraphic" in2="BackgroundImageFix" result="shape"></feBlend>
            <feColorMatrix in="SourceAlpha" type="matrix" values="0 0 0 0 0 0 0 0 0 0 0 0 0 0 0 0 0 0 127 0"
                result="hardAlpha"></feColorMatrix>
            <feOffset dy="4"></feOffset>
            <feGaussianBlur stdDeviation="2"></feGaussianBlur>
            <feComposite in2="hardAlpha" operator="arithmetic" k2="-1" k3="1"></feComposite>
            <feColorMatrix type="matrix" values="0 0 0 0 1 0 0 0 0 1 0 0 0 0 1 0 0 0 0.25 0"></feColorMatrix>
            <feBlend mode="normal" in2="shape" result="effect1_innerShadow_2690_16551"></feBlend>
        </filter>
        <radialGradient id="svg1801710659_10306_paint0_radial_2690_16551" cx="0" cy="0" r="1"
            gradientUnits="userSpaceOnUse"
            gradientTransform="translate(36.9929 39.948) rotate(86.5006) scale(50.5047 77.0041)">
            <stop stop-color="white"></stop>
            <stop offset="1" stop-color="white" stop-opacity="0"></stop>
        </radialGradient>
        <radialGradient id="svg1801710659_10306_paint1_radial_2690_16551" cx="0" cy="0" r="1"
            gradientUnits="userSpaceOnUse"
            gradientTransform="translate(36.9929 39.948) rotate(86.5006) scale(50.5047 77.0041)">
            <stop stop-color="white"></stop>
            <stop offset="1" stop-color="white" stop-opacity="0"></stop>
        </radialGradient>
    </defs>
</svg>