<svg width="62" height="42" viewBox="-1 -1 62 42" fill="none" xmlns="http://www.w3.org/2000/svg"
    id="svg1106886366_8082">
    <g filter="url(#svg1106886366_8082_filter0_i_2690_16556)">
        <path
            d="M14.6164 40C11.6168 40 9.02471 39.1851 6.84005 37.5553C4.6554 35.9254 2.96489 33.6194 1.76853 30.6372C0.58951 27.655 0 24.1179 0 20.026C0 15.9168 0.58951 12.371 1.76853 9.38882C2.96489 6.38925 4.6554 4.07456 6.84005 2.44473C9.02471 0.814911 11.6168 0 14.6164 0C17.616 0 20.2081 0.814911 22.3927 2.44473C24.5947 4.07456 26.2852 6.38925 27.4642 9.38882C28.6433 12.371 29.2328 15.9168 29.2328 20.026C29.2328 24.1179 28.6433 27.655 27.4642 30.6372C26.2852 33.6194 24.5947 35.9254 22.3927 37.5553C20.2081 39.1851 17.616 40 14.6164 40ZM14.6164 35.0065C16.4889 35.0065 18.1014 34.4083 19.4538 33.212C20.8062 31.9983 21.8466 30.2731 22.5748 28.0364C23.303 25.7997 23.6671 23.1296 23.6671 20.026C23.6671 16.9051 23.303 14.2263 22.5748 11.9896C21.8466 9.73559 20.8062 8.0104 19.4538 6.81404C18.1014 5.60035 16.4889 4.9935 14.6164 4.9935C11.8075 4.9935 9.59688 6.32857 7.9844 8.9987C6.37191 11.6688 5.56567 15.3446 5.56567 20.026C5.56567 23.1296 5.92978 25.7997 6.658 28.0364C7.38622 30.2731 8.42653 31.9983 9.77893 33.212C11.1313 34.4083 12.7438 35.0065 14.6164 35.0065Z"
            fill="white" fill-opacity="0.1"></path>
        <path
            d="M14.6164 40C11.6168 40 9.02471 39.1851 6.84005 37.5553C4.6554 35.9254 2.96489 33.6194 1.76853 30.6372C0.58951 27.655 0 24.1179 0 20.026C0 15.9168 0.58951 12.371 1.76853 9.38882C2.96489 6.38925 4.6554 4.07456 6.84005 2.44473C9.02471 0.814911 11.6168 0 14.6164 0C17.616 0 20.2081 0.814911 22.3927 2.44473C24.5947 4.07456 26.2852 6.38925 27.4642 9.38882C28.6433 12.371 29.2328 15.9168 29.2328 20.026C29.2328 24.1179 28.6433 27.655 27.4642 30.6372C26.2852 33.6194 24.5947 35.9254 22.3927 37.5553C20.2081 39.1851 17.616 40 14.6164 40ZM14.6164 35.0065C16.4889 35.0065 18.1014 34.4083 19.4538 33.212C20.8062 31.9983 21.8466 30.2731 22.5748 28.0364C23.303 25.7997 23.6671 23.1296 23.6671 20.026C23.6671 16.9051 23.303 14.2263 22.5748 11.9896C21.8466 9.73559 20.8062 8.0104 19.4538 6.81404C18.1014 5.60035 16.4889 4.9935 14.6164 4.9935C11.8075 4.9935 9.59688 6.32857 7.9844 8.9987C6.37191 11.6688 5.56567 15.3446 5.56567 20.026C5.56567 23.1296 5.92978 25.7997 6.658 28.0364C7.38622 30.2731 8.42653 31.9983 9.77893 33.212C11.1313 34.4083 12.7438 35.0065 14.6164 35.0065Z"
            fill="url(#svg1106886366_8082_paint0_radial_2690_16556)" fill-opacity="0.2"></path>
        <path
            d="M33.1995 39.3758V34.7204L47.1397 22.3147C48.7175 20.8756 49.9832 19.6099 50.9368 18.5176C51.9078 17.4079 52.6186 16.3589 53.0694 15.3706C53.5202 14.365 53.7456 13.2987 53.7456 12.1717C53.7456 10.6805 53.4596 9.40616 52.8874 8.34851C52.3152 7.27352 51.483 6.44993 50.3906 5.87776C49.2983 5.28825 47.9546 4.9935 46.3594 4.9935C44.799 4.9935 43.4466 5.34027 42.3022 6.03381C41.1752 6.72735 40.3083 7.70698 39.7014 8.97269C39.0946 10.2384 38.7912 11.7295 38.7912 13.446H33.2255C33.2255 10.7412 33.763 8.38318 34.838 6.37191C35.9303 4.3433 37.4561 2.77417 39.4153 1.6645C41.3746 0.554833 43.6893 0 46.3594 0C49.0642 0 51.3789 0.502818 53.3035 1.50845C55.2454 2.51409 56.7279 3.93585 57.7508 5.77373C58.7912 7.59428 59.3113 9.74426 59.3113 12.2237C59.3113 13.8015 59.0512 15.2666 58.5311 16.619C58.0109 17.9541 57.1353 19.3411 55.9043 20.7802C54.6906 22.202 53.0261 23.8405 50.9108 25.6957L41.2359 34.2783V34.3823H59.1813V39.3758H33.1995Z"
            fill="white" fill-opacity="0.1"></path>
        <path
            d="M33.1995 39.3758V34.7204L47.1397 22.3147C48.7175 20.8756 49.9832 19.6099 50.9368 18.5176C51.9078 17.4079 52.6186 16.3589 53.0694 15.3706C53.5202 14.365 53.7456 13.2987 53.7456 12.1717C53.7456 10.6805 53.4596 9.40616 52.8874 8.34851C52.3152 7.27352 51.483 6.44993 50.3906 5.87776C49.2983 5.28825 47.9546 4.9935 46.3594 4.9935C44.799 4.9935 43.4466 5.34027 42.3022 6.03381C41.1752 6.72735 40.3083 7.70698 39.7014 8.97269C39.0946 10.2384 38.7912 11.7295 38.7912 13.446H33.2255C33.2255 10.7412 33.763 8.38318 34.838 6.37191C35.9303 4.3433 37.4561 2.77417 39.4153 1.6645C41.3746 0.554833 43.6893 0 46.3594 0C49.0642 0 51.3789 0.502818 53.3035 1.50845C55.2454 2.51409 56.7279 3.93585 57.7508 5.77373C58.7912 7.59428 59.3113 9.74426 59.3113 12.2237C59.3113 13.8015 59.0512 15.2666 58.5311 16.619C58.0109 17.9541 57.1353 19.3411 55.9043 20.7802C54.6906 22.202 53.0261 23.8405 50.9108 25.6957L41.2359 34.2783V34.3823H59.1813V39.3758H33.1995Z"
            fill="url(#svg1106886366_8082_paint1_radial_2690_16556)" fill-opacity="0.2"></path>
    </g>
    <path
        d="M1.53604 30.7291L1.5365 30.7303C2.74689 33.7475 4.46291 36.0937 6.69056 37.7556C8.92276 39.4209 11.5687 40.25 14.6164 40.25C17.6639 40.25 20.3096 39.4211 22.5417 37.756C24.7872 36.0939 26.5036 33.7471 27.6967 30.7291C28.89 27.7108 29.4828 24.1411 29.4828 20.026C29.4828 15.8938 28.8901 12.3154 27.6968 9.29696C26.5037 6.26193 24.7875 3.90631 22.5418 2.24407C20.3097 0.578966 17.6639 -0.25 14.6164 -0.25C11.5687 -0.25 8.92276 0.57906 6.69056 2.24435C4.46257 3.90651 2.74658 6.26177 1.53632 9.2962L1.53604 9.2969C0.342701 12.3153 -0.25 15.8938 -0.25 20.026C-0.25 24.1411 0.342744 27.7108 1.53604 30.7291ZM22.3369 12.0665L22.3371 12.067C23.055 14.272 23.4171 16.9233 23.4171 20.026C23.4171 23.1112 23.055 25.7539 22.3371 27.959C21.6186 30.1656 20.5985 31.8485 19.2874 33.0254C17.9827 34.1793 16.43 34.7565 14.6164 34.7565C12.8028 34.7565 11.2501 34.1793 9.94544 33.0255C8.63426 31.8486 7.61415 30.1656 6.89572 27.959C6.17776 25.7539 5.81567 23.1112 5.81567 20.026C5.81567 15.369 6.61843 11.7442 8.1984 9.12794C9.77162 6.52283 11.9061 5.2435 14.6164 5.2435C16.4294 5.2435 17.9818 5.82894 19.2869 7.00011L19.2882 7.00129C20.5982 8.16011 21.6182 9.8421 22.3369 12.0665ZM32.9495 39.3758V39.6258H33.1995H59.1813H59.4313V39.3758V34.3823V34.1323H59.1813H41.7772L51.0756 25.8837C51.0758 25.8835 51.076 25.8833 51.0763 25.8831C53.1962 24.0238 54.8701 22.3768 56.0943 20.9427C57.338 19.4888 58.231 18.0779 58.764 16.7097L58.7644 16.7087C59.2965 15.3252 59.5613 13.8294 59.5613 12.2237C59.5613 9.70926 59.0337 7.51531 57.9686 5.65088C56.9209 3.76912 55.402 2.31379 53.4191 1.28676C51.4511 0.258499 49.0947 -0.25 46.3594 -0.25C43.6542 -0.25 41.2954 0.312375 39.2921 1.44697C37.2909 2.58041 35.732 4.18432 34.6179 6.25339L34.6175 6.25407C33.5198 8.30778 32.9755 10.7077 32.9755 13.446V13.696H33.2255H38.7912H39.0412V13.446C39.0412 11.7588 39.3394 10.3061 39.9269 9.08077C40.5141 7.85585 41.3493 6.91396 42.4325 6.24716C43.5315 5.58129 44.8373 5.2435 46.3594 5.2435C47.9246 5.2435 49.225 5.53277 50.2719 6.09779L50.2746 6.09922C51.323 6.64836 52.1185 7.43598 52.6667 8.46597L52.6675 8.46746C53.2157 9.48081 53.4956 10.7123 53.4956 12.1717C53.4956 13.2639 53.2775 14.295 52.8417 15.2675C52.4038 16.2272 51.7087 17.2557 50.7487 18.3529L50.7485 18.3531C49.8035 19.4356 48.5455 20.694 46.9722 22.129C46.9719 22.1293 46.9715 22.1297 46.9712 22.13L33.0333 34.5337L32.9495 34.6082V34.7204V39.3758Z"
        stroke="white" stroke-opacity="0.1" stroke-width="0.5"></path>
    <defs>
        <filter id="svg1106886366_8082_filter0_i_2690_16556" x="-0.5" y="-0.5" width="60.3105" height="45"
            filterUnits="userSpaceOnUse" color-interpolation-filters="sRGB">
            <feFlood flood-opacity="0" result="BackgroundImageFix"></feFlood>
            <feBlend mode="normal" in="SourceGraphic" in2="BackgroundImageFix" result="shape"></feBlend>
            <feColorMatrix in="SourceAlpha" type="matrix" values="0 0 0 0 0 0 0 0 0 0 0 0 0 0 0 0 0 0 127 0"
                result="hardAlpha"></feColorMatrix>
            <feOffset dy="4"></feOffset>
            <feGaussianBlur stdDeviation="2"></feGaussianBlur>
            <feComposite in2="hardAlpha" operator="arithmetic" k2="-1" k3="1"></feComposite>
            <feColorMatrix type="matrix" values="0 0 0 0 1 0 0 0 0 1 0 0 0 0 1 0 0 0 0.25 0"></feColorMatrix>
            <feBlend mode="normal" in2="shape" result="effect1_innerShadow_2690_16556"></feBlend>
        </filter>
        <radialGradient id="svg1106886366_8082_paint0_radial_2690_16556" cx="0" cy="0" r="1"
            gradientUnits="userSpaceOnUse"
            gradientTransform="translate(35.9218 39.948) rotate(86.6017) scale(50.4994 74.7825)">
            <stop stop-color="white"></stop>
            <stop offset="1" stop-color="white" stop-opacity="0"></stop>
        </radialGradient>
        <radialGradient id="svg1106886366_8082_paint1_radial_2690_16556" cx="0" cy="0" r="1"
            gradientUnits="userSpaceOnUse"
            gradientTransform="translate(35.9218 39.948) rotate(86.6017) scale(50.4994 74.7825)">
            <stop stop-color="white"></stop>
            <stop offset="1" stop-color="white" stop-opacity="0"></stop>
        </radialGradient>
    </defs>
</svg>